<svg width="100%" height="100%" viewBox="0 0 512 512" fill="none" xmlns="http://www.w3.org/2000/svg">
<path fill-rule="evenodd" clip-rule="evenodd" d="M302.917 88.2387C327.418 105.732 358.938 149.66 401.815 226.07C465.074 338.806 474.042 372.496 444.169 385.196C424.011 393.765 400.429 384.822 362.441 354.219C342.667 338.289 320.69 322.868 313.607 319.952C298.183 313.609 289.738 317.308 244.955 350.022C200.424 382.549 192.622 380.211 218.143 341.977C225.743 330.586 240.214 304.755 250.299 284.575C282.925 219.298 302.231 218.914 352.531 282.54C370.812 305.67 389.457 327.822 393.96 331.76C426.126 359.915 362.082 244.139 318.256 194.908C302.774 177.515 285.127 172.826 275.964 183.664C273.089 187.074 257.09 219.136 240.421 254.918C176.605 391.893 159.152 404.955 89.8328 367.616C33.6177 337.335 0.604672 295.758 40.2254 305.133C49.2059 307.258 66.3541 310.49 78.3259 312.314C114.931 317.891 125.887 303.483 180.929 177.367C197.761 138.803 214.353 103.798 217.795 99.583C239.24 73.318 275.288 68.5107 302.917 88.2387Z" fill="currentColor"></path>
</svg>